<?xml version="1.0" encoding="UTF-8" ?>
<svg version="1.1" width="170" height="170" xmlns="http://www.w3.org/2000/svg" shape-rendering="crispEdges">
<rect x="99" y="23" width="8" height="4" fill="#FFFFFF" />
<rect x="107" y="24" width="1" height="8" fill="#FFFFFF" />
<rect x="108" y="25" width="1" height="8" fill="#FFFFFF" />
<rect x="109" y="26" width="1" height="9" fill="#FFFFFF" />
<rect x="99" y="27" width="4" height="10" fill="#FFFFFF" />
<rect x="104" y="27" width="3" height="1" fill="#FFFFFF" />
<rect x="110" y="27" width="1" height="9" fill="#FFFFFF" />
<rect x="105" y="28" width="2" height="1" fill="#FFFFFF" />
<rect x="111" y="28" width="1" height="9" fill="#FFFFFF" />
<rect x="106" y="29" width="1" height="2" fill="#FFFFFF" />
<rect x="112" y="29" width="1" height="9" fill="#FFFFFF" />
<rect x="113" y="30" width="1" height="10" fill="#FFFFFF" />
<rect x="96" y="31" width="1" height="90" fill="#FFFFFF" />
<rect x="114" y="31" width="1" height="10" fill="#FFFFFF" />
<rect x="115" y="32" width="1" height="11" fill="#FFFFFF" />
<rect x="95" y="34" width="1" height="87" fill="#FFFFFF" />
<rect x="116" y="34" width="1" height="11" fill="#FFFFFF" />
<rect x="117" y="35" width="1" height="10" fill="#FFFFFF" />
<rect x="118" y="36" width="1" height="9" fill="#FFFFFF" />
<rect x="94" y="37" width="1" height="83" fill="#FFFFFF" />
<rect x="99" y="37" width="3" height="8" fill="#FFFFFF" />
<rect x="119" y="37" width="1" height="8" fill="#FFFFFF" />
<rect x="56" y="38" width="19" height="1" fill="#FFFFFF" />
<rect x="120" y="38" width="1" height="7" fill="#FFFFFF" />
<rect x="57" y="39" width="25" height="1" fill="#FFFFFF" />
<rect x="58" y="40" width="31" height="1" fill="#FFFFFF" />
<rect x="93" y="40" width="1" height="80" fill="#FFFFFF" />
<rect x="121" y="40" width="1" height="5" fill="#FFFFFF" />
<rect x="59" y="41" width="34" height="1" fill="#FFFFFF" />
<rect x="122" y="41" width="1" height="4" fill="#FFFFFF" />
<rect x="60" y="42" width="33" height="2" fill="#FFFFFF" />
<rect x="123" y="42" width="1" height="3" fill="#FFFFFF" />
<rect x="61" y="44" width="32" height="1" fill="#FFFFFF" />
<rect x="124" y="44" width="1" height="1" fill="#FFFFFF" />
<rect x="62" y="45" width="31" height="2" fill="#FFFFFF" />
<rect x="97" y="46" width="5" height="46" fill="#FFFFFF" />
<rect x="126" y="46" width="3" height="24" fill="#FFFFFF" />
<rect x="63" y="47" width="30" height="2" fill="#FFFFFF" />
<rect x="102" y="47" width="24" height="24" fill="#FFFFFF" />
<rect x="129" y="47" width="2" height="22" fill="#FFFFFF" />
<rect x="131" y="48" width="3" height="10" fill="#FFFFFF" />
<rect x="64" y="49" width="29" height="2" fill="#FFFFFF" />
<rect x="134" y="49" width="2" height="7" fill="#FFFFFF" />
<rect x="136" y="50" width="2" height="5" fill="#FFFFFF" />
<rect x="65" y="51" width="28" height="5" fill="#FFFFFF" />
<rect x="138" y="51" width="2" height="5" fill="#FFFFFF" />
<rect x="59" y="52" width="6" height="2" fill="#FFFFFF" />
<rect x="140" y="52" width="2" height="7" fill="#FFFFFF" />
<rect x="58" y="53" width="1" height="1" fill="#FFFFFF" />
<rect x="142" y="53" width="2" height="20" fill="#FFFFFF" />
<rect x="60" y="54" width="5" height="1" fill="#FFFFFF" />
<rect x="144" y="54" width="2" height="21" fill="#FFFFFF" />
<rect x="63" y="55" width="2" height="1" fill="#FFFFFF" />
<rect x="146" y="55" width="1" height="21" fill="#FFFFFF" />
<rect x="31" y="56" width="24" height="4" fill="#FFFFFF" />
<rect x="66" y="56" width="27" height="1" fill="#FFFFFF" />
<rect x="134" y="56" width="1" height="1" fill="#FFFFFF" />
<rect x="139" y="56" width="1" height="1" fill="#FFFFFF" />
<rect x="28" y="57" width="3" height="3" fill="#FFFFFF" />
<rect x="55" y="57" width="4" height="7" fill="#FFFFFF" />
<rect x="68" y="57" width="25" height="1" fill="#FFFFFF" />
<rect x="24" y="58" width="4" height="2" fill="#FFFFFF" />
<rect x="59" y="58" width="3" height="7" fill="#FFFFFF" />
<rect x="69" y="58" width="24" height="1" fill="#FFFFFF" />
<rect x="131" y="58" width="2" height="11" fill="#FFFFFF" />
<rect x="147" y="58" width="1" height="18" fill="#FFFFFF" />
<rect x="22" y="59" width="2" height="1" fill="#FFFFFF" />
<rect x="62" y="59" width="2" height="7" fill="#FFFFFF" />
<rect x="71" y="59" width="22" height="1" fill="#FFFFFF" />
<rect x="133" y="59" width="2" height="10" fill="#FFFFFF" />
<rect x="141" y="59" width="1" height="2" fill="#FFFFFF" />
<rect x="20" y="60" width="3" height="1" fill="#FFFFFF" />
<rect x="23" y="60" width="18" height="40" fill="#AB2018" />
<rect x="41" y="60" width="14" height="1" fill="#FFFFFF" />
<rect x="64" y="60" width="2" height="7" fill="#FFFFFF" />
<rect x="72" y="60" width="21" height="1" fill="#FFFFFF" />
<rect x="135" y="60" width="2" height="10" fill="#FFFFFF" />
<rect x="19" y="61" width="1" height="1" fill="#FFFFFF" />
<rect x="20" y="61" width="3" height="36" fill="#AB2018" />
<rect x="41" y="61" width="6" height="52" fill="#AB2018" />
<rect x="47" y="61" width="8" height="1" fill="#FFFFFF" />
<rect x="66" y="61" width="2" height="6" fill="#FFFFFF" />
<rect x="73" y="61" width="20" height="1" fill="#FFFFFF" />
<rect x="137" y="61" width="2" height="10" fill="#FFFFFF" />
<rect x="148" y="61" width="1" height="16" fill="#FFFFFF" />
<rect x="18" y="62" width="1" height="1" fill="#FFFFFF" />
<rect x="19" y="62" width="1" height="34" fill="#AB2018" />
<rect x="47" y="62" width="4" height="47" fill="#AB2018" />
<rect x="51" y="62" width="4" height="1" fill="#FFFFFF" />
<rect x="68" y="62" width="1" height="6" fill="#FFFFFF" />
<rect x="74" y="62" width="19" height="1" fill="#FFFFFF" />
<rect x="139" y="62" width="2" height="10" fill="#FFFFFF" />
<rect x="17" y="63" width="1" height="1" fill="#FFFFFF" />
<rect x="18" y="63" width="1" height="32" fill="#AB2018" />
<rect x="51" y="63" width="4" height="13" fill="#AB2018" />
<rect x="69" y="63" width="1" height="5" fill="#FFFFFF" />
<rect x="75" y="63" width="18" height="1" fill="#FFFFFF" />
<rect x="141" y="63" width="1" height="10" fill="#FFFFFF" />
<rect x="16" y="64" width="1" height="1" fill="#FFFFFF" />
<rect x="17" y="64" width="1" height="30" fill="#AB2018" />
<rect x="55" y="64" width="2" height="12" fill="#AB2018" />
<rect x="57" y="64" width="2" height="1" fill="#FFFFFF" />
<rect x="70" y="64" width="1" height="5" fill="#FFFFFF" />
<rect x="76" y="64" width="17" height="1" fill="#FFFFFF" />
<rect x="15" y="65" width="1" height="1" fill="#FFFFFF" />
<rect x="16" y="65" width="1" height="28" fill="#AB2018" />
<rect x="57" y="65" width="4" height="11" fill="#AB2018" />
<rect x="61" y="65" width="1" height="1" fill="#FFFFFF" />
<rect x="71" y="65" width="1" height="4" fill="#FFFFFF" />
<rect x="77" y="65" width="16" height="1" fill="#FFFFFF" />
<rect x="149" y="65" width="2" height="12" fill="#FFFFFF" />
<rect x="14" y="66" width="1" height="1" fill="#FFFFFF" />
<rect x="15" y="66" width="1" height="26" fill="#AB2018" />
<rect x="61" y="66" width="3" height="10" fill="#AB2018" />
<rect x="72" y="66" width="1" height="3" fill="#FFFFFF" />
<rect x="78" y="66" width="15" height="2" fill="#FFFFFF" />
<rect x="151" y="66" width="2" height="12" fill="#FFFFFF" />
<rect x="13" y="67" width="1" height="2" fill="#FFFFFF" />
<rect x="14" y="67" width="1" height="25" fill="#AB2018" />
<rect x="64" y="67" width="3" height="9" fill="#AB2018" />
<rect x="67" y="67" width="1" height="1" fill="#FFFFFF" />
<rect x="73" y="67" width="1" height="2" fill="#FFFFFF" />
<rect x="153" y="67" width="2" height="12" fill="#FFFFFF" />
<rect x="67" y="68" width="3" height="9" fill="#AB2018" />
<rect x="74" y="68" width="1" height="2" fill="#FFFFFF" />
<rect x="79" y="68" width="14" height="1" fill="#FFFFFF" />
<rect x="155" y="68" width="3" height="12" fill="#FFFFFF" />
<rect x="12" y="69" width="1" height="2" fill="#FFFFFF" />
<rect x="13" y="69" width="1" height="23" fill="#AB2018" />
<rect x="70" y="69" width="4" height="8" fill="#AB2018" />
<rect x="75" y="69" width="1" height="1" fill="#FFFFFF" />
<rect x="80" y="69" width="13" height="1" fill="#FFFFFF" />
<rect x="134" y="69" width="1" height="1" fill="#FFFFFF" />
<rect x="158" y="69" width="3" height="12" fill="#FFFFFF" />
<rect x="11" y="70" width="1" height="3" fill="#FFFFFF" />
<rect x="74" y="70" width="2" height="7" fill="#AB2018" />
<rect x="76" y="70" width="1" height="1" fill="#FFFFFF" />
<rect x="81" y="70" width="12" height="46" fill="#FFFFFF" />
<rect x="126" y="70" width="1" height="1" fill="#FFFFFF" />
<rect x="136" y="70" width="1" height="1" fill="#FFFFFF" />
<rect x="161" y="70" width="3" height="12" fill="#FFFFFF" />
<rect x="12" y="71" width="1" height="20" fill="#AB2018" />
<rect x="76" y="71" width="1" height="7" fill="#AB2018" />
<rect x="77" y="71" width="1" height="1" fill="#FFFFFF" />
<rect x="102" y="71" width="23" height="1" fill="#FFFFFF" />
<rect x="138" y="71" width="1" height="1" fill="#FFFFFF" />
<rect x="164" y="71" width="3" height="9" fill="#FFFFFF" />
<rect x="77" y="72" width="1" height="4" fill="#AB2018" />
<rect x="78" y="72" width="1" height="4" fill="#FFFFFF" />
<rect x="102" y="72" width="21" height="1" fill="#FFFFFF" />
<rect x="140" y="72" width="1" height="1" fill="#FFFFFF" />
<rect x="167" y="72" width="1" height="7" fill="#FFFFFF" />
<rect x="10" y="73" width="1" height="3" fill="#FFFFFF" />
<rect x="11" y="73" width="1" height="20" fill="#AB2018" />
<rect x="102" y="73" width="19" height="1" fill="#FFFFFF" />
<rect x="143" y="73" width="1" height="1" fill="#FFFFFF" />
<rect x="102" y="74" width="17" height="13" fill="#FFFFFF" />
<rect x="9" y="76" width="1" height="15" fill="#FFFFFF" />
<rect x="10" y="76" width="1" height="15" fill="#AB2018" />
<rect x="51" y="76" width="3" height="32" fill="#AB2018" />
<rect x="54" y="76" width="12" height="1" fill="#770F09" />
<rect x="66" y="76" width="1" height="1" fill="#AB2018" />
<rect x="77" y="76" width="1" height="2" fill="#FFFFFF" />
<rect x="54" y="77" width="2" height="30" fill="#AB2018" />
<rect x="56" y="77" width="19" height="1" fill="#770F09" />
<rect x="75" y="77" width="1" height="1" fill="#AB2018" />
<rect x="80" y="77" width="1" height="40" fill="#FFFFFF" />
<rect x="150" y="77" width="1" height="1" fill="#FFFFFF" />
<rect x="56" y="78" width="1" height="29" fill="#AB2018" />
<rect x="57" y="78" width="19" height="1" fill="#770F09" />
<rect x="76" y="78" width="1" height="6" fill="#FFFFFF" />
<rect x="147" y="78" width="2" height="4" fill="#FFFFFF" />
<rect x="152" y="78" width="1" height="1" fill="#FFFFFF" />
<rect x="57" y="79" width="1" height="28" fill="#AB2018" />
<rect x="58" y="79" width="18" height="1" fill="#770F09" />
<rect x="146" y="79" width="1" height="4" fill="#FFFFFF" />
<rect x="149" y="79" width="1" height="2" fill="#FFFFFF" />
<rect x="154" y="79" width="1" height="1" fill="#FFFFFF" />
<rect x="58" y="80" width="2" height="26" fill="#AB2018" />
<rect x="60" y="80" width="16" height="1" fill="#770F09" />
<rect x="79" y="80" width="1" height="36" fill="#FFFFFF" />
<rect x="145" y="80" width="1" height="3" fill="#FFFFFF" />
<rect x="151" y="80" width="3" height="4" fill="#FFFFFF" />
<rect x="156" y="80" width="2" height="1" fill="#FFFFFF" />
<rect x="164" y="80" width="2" height="1" fill="#FFFFFF" />
<rect x="60" y="81" width="2" height="25" fill="#AB2018" />
<rect x="62" y="81" width="14" height="1" fill="#770F09" />
<rect x="144" y="81" width="1" height="2" fill="#FFFFFF" />
<rect x="154" y="81" width="2" height="2" fill="#FFFFFF" />
<rect x="159" y="81" width="2" height="1" fill="#FFFFFF" />
<rect x="62" y="82" width="2" height="23" fill="#AB2018" />
<rect x="64" y="82" width="12" height="1" fill="#770F09" />
<rect x="143" y="82" width="1" height="1" fill="#FFFFFF" />
<rect x="150" y="82" width="1" height="4" fill="#FFFFFF" />
<rect x="64" y="83" width="3" height="22" fill="#AB2018" />
<rect x="67" y="83" width="8" height="1" fill="#770F09" />
<rect x="75" y="83" width="1" height="1" fill="#AB2018" />
<rect x="149" y="83" width="1" height="3" fill="#FFFFFF" />
<rect x="154" y="83" width="1" height="1" fill="#FFFFFF" />
<rect x="67" y="84" width="3" height="21" fill="#AB2018" />
<rect x="70" y="84" width="5" height="1" fill="#770F09" />
<rect x="75" y="84" width="1" height="20" fill="#FFFFFF" />
<rect x="148" y="84" width="1" height="3" fill="#FFFFFF" />
<rect x="151" y="84" width="2" height="1" fill="#FFFFFF" />
<rect x="70" y="85" width="5" height="18" fill="#AB2018" />
<rect x="147" y="85" width="1" height="2" fill="#FFFFFF" />
<rect x="151" y="85" width="1" height="1" fill="#FFFFFF" />
<rect x="146" y="86" width="1" height="2" fill="#FFFFFF" />
<rect x="102" y="87" width="4" height="1" fill="#FFFFFF" />
<rect x="108" y="87" width="11" height="1" fill="#FFFFFF" />
<rect x="145" y="87" width="1" height="1" fill="#FFFFFF" />
<rect x="102" y="88" width="3" height="1" fill="#FFFFFF" />
<rect x="109" y="88" width="10" height="1" fill="#FFFFFF" />
<rect x="102" y="89" width="2" height="1" fill="#FFFFFF" />
<rect x="110" y="89" width="10" height="1" fill="#FFFFFF" />
<rect x="102" y="90" width="1" height="1" fill="#FFFFFF" />
<rect x="111" y="90" width="10" height="1" fill="#FFFFFF" />
<rect x="10" y="91" width="1" height="2" fill="#FFFFFF" />
<rect x="12" y="91" width="1" height="12" fill="#11394C" />
<rect x="112" y="91" width="11" height="1" fill="#FFFFFF" />
<rect x="13" y="92" width="3" height="13" fill="#11394C" />
<rect x="97" y="92" width="4" height="1" fill="#FFFFFF" />
<rect x="113" y="92" width="11" height="1" fill="#FFFFFF" />
<rect x="16" y="93" width="1" height="15" fill="#11394C" />
<rect x="97" y="93" width="3" height="1" fill="#FFFFFF" />
<rect x="114" y="93" width="12" height="1" fill="#FFFFFF" />
<rect x="10" y="94" width="1" height="5" fill="#EEEEEE" />
<rect x="11" y="94" width="1" height="5" fill="#11394C" />
<rect x="17" y="94" width="1" height="13" fill="#11394C" />
<rect x="78" y="94" width="1" height="20" fill="#FFFFFF" />
<rect x="97" y="94" width="2" height="2" fill="#FFFFFF" />
<rect x="115" y="94" width="12" height="1" fill="#FFFFFF" />
<rect x="18" y="95" width="1" height="11" fill="#11394C" />
<rect x="116" y="95" width="13" height="1" fill="#FFFFFF" />
<rect x="135" y="95" width="1" height="4" fill="#FFFFFF" />
<rect x="19" y="96" width="1" height="9" fill="#11394C" />
<rect x="97" y="96" width="1" height="26" fill="#FFFFFF" />
<rect x="117" y="96" width="13" height="2" fill="#FFFFFF" />
<rect x="133" y="96" width="2" height="1" fill="#FFFFFF" />
<rect x="141" y="96" width="1" height="3" fill="#FFFFFF" />
<rect x="20" y="97" width="1" height="7" fill="#11394C" />
<rect x="21" y="97" width="2" height="1" fill="#AB2018" />
<rect x="130" y="97" width="1" height="14" fill="#FFFFFF" />
<rect x="134" y="97" width="1" height="1" fill="#FFFFFF" />
<rect x="140" y="97" width="1" height="5" fill="#FFFFFF" />
<rect x="21" y="98" width="1" height="5" fill="#11394C" />
<rect x="22" y="98" width="1" height="1" fill="#AB2018" />
<rect x="118" y="98" width="12" height="1" fill="#FFFFFF" />
<rect x="131" y="98" width="2" height="14" fill="#FFFFFF" />
<rect x="138" y="98" width="2" height="4" fill="#FFFFFF" />
<rect x="11" y="99" width="1" height="5" fill="#EEEEEE" />
<rect x="22" y="99" width="1" height="4" fill="#11394C" />
<rect x="119" y="99" width="11" height="1" fill="#FFFFFF" />
<rect x="133" y="99" width="1" height="13" fill="#FFFFFF" />
<rect x="137" y="99" width="1" height="2" fill="#FFFFFF" />
<rect x="23" y="100" width="1" height="3" fill="#11394C" />
<rect x="24" y="100" width="17" height="1" fill="#AB2018" />
<rect x="120" y="100" width="10" height="1" fill="#FFFFFF" />
<rect x="134" y="100" width="1" height="11" fill="#FFFFFF" />
<rect x="24" y="101" width="1" height="3" fill="#11394C" />
<rect x="25" y="101" width="16" height="1" fill="#AB2018" />
<rect x="121" y="101" width="9" height="1" fill="#FFFFFF" />
<rect x="135" y="101" width="1" height="9" fill="#FFFFFF" />
<rect x="25" y="102" width="1" height="3" fill="#11394C" />
<rect x="26" y="102" width="15" height="2" fill="#AB2018" />
<rect x="122" y="102" width="8" height="1" fill="#FFFFFF" />
<rect x="136" y="102" width="1" height="7" fill="#FFFFFF" />
<rect x="139" y="102" width="1" height="1" fill="#FFFFFF" />
<rect x="12" y="103" width="1" height="2" fill="#EEEEEE" />
<rect x="21" y="103" width="3" height="3" fill="#A7CBDC" />
<rect x="70" y="103" width="4" height="2" fill="#AB2018" />
<rect x="74" y="103" width="1" height="10" fill="#FFFFFF" />
<rect x="123" y="103" width="7" height="1" fill="#FFFFFF" />
<rect x="137" y="103" width="1" height="5" fill="#FFFFFF" />
<rect x="20" y="104" width="1" height="10" fill="#A7CBDC" />
<rect x="24" y="104" width="1" height="4" fill="#A7CBDC" />
<rect x="26" y="104" width="1" height="2" fill="#11394C" />
<rect x="27" y="104" width="14" height="1" fill="#AB2018" />
<rect x="124" y="104" width="6" height="1" fill="#FFFFFF" />
<rect x="13" y="105" width="1" height="3" fill="#EEEEEE" />
<rect x="14" y="105" width="2" height="3" fill="#11394C" />
<rect x="19" y="105" width="1" height="8" fill="#A7CBDC" />
<rect x="25" y="105" width="1" height="3" fill="#A7CBDC" />
<rect x="27" y="105" width="1" height="7" fill="#11394C" />
<rect x="28" y="105" width="13" height="1" fill="#AB2018" />
<rect x="62" y="105" width="1" height="1" fill="#AB2018" />
<rect x="63" y="105" width="8" height="19" fill="#770F09" />
<rect x="71" y="105" width="3" height="1" fill="#AB2018" />
<rect x="125" y="105" width="5" height="1" fill="#FFFFFF" />
<rect x="18" y="106" width="1" height="6" fill="#A7CBDC" />
<rect x="21" y="106" width="1" height="7" fill="#A7CBDC" />
<rect x="22" y="106" width="1" height="2" fill="#11394C" />
<rect x="23" y="106" width="1" height="1" fill="#A7CBDC" />
<rect x="26" y="106" width="1" height="1" fill="#A7CBDC" />
<rect x="28" y="106" width="1" height="7" fill="#11394C" />
<rect x="29" y="106" width="12" height="1" fill="#AB2018" />
<rect x="58" y="106" width="5" height="18" fill="#770F09" />
<rect x="71" y="106" width="1" height="18" fill="#770F09" />
<rect x="72" y="106" width="2" height="2" fill="#AB2018" />
<rect x="126" y="106" width="4" height="1" fill="#FFFFFF" />
<rect x="17" y="107" width="1" height="4" fill="#A7CBDC" />
<rect x="23" y="107" width="1" height="10" fill="#11394C" />
<rect x="26" y="107" width="1" height="4" fill="#11394C" />
<rect x="29" y="107" width="1" height="6" fill="#11394C" />
<rect x="30" y="107" width="11" height="1" fill="#AB2018" />
<rect x="54" y="107" width="4" height="17" fill="#770F09" />
<rect x="127" y="107" width="3" height="1" fill="#FFFFFF" />
<rect x="14" y="108" width="1" height="1" fill="#EEEEEE" />
<rect x="15" y="108" width="1" height="1" fill="#11394C" />
<rect x="16" y="108" width="1" height="1" fill="#A7CBDC" />
<rect x="22" y="108" width="1" height="4" fill="#A7CBDC" />
<rect x="24" y="108" width="2" height="2" fill="#11394C" />
<rect x="30" y="108" width="1" height="4" fill="#11394C" />
<rect x="31" y="108" width="10" height="1" fill="#AB2018" />
<rect x="51" y="108" width="1" height="1" fill="#AB2018" />
<rect x="52" y="108" width="2" height="16" fill="#770F09" />
<rect x="72" y="108" width="1" height="16" fill="#770F09" />
<rect x="73" y="108" width="1" height="7" fill="#AB2018" />
<rect x="77" y="108" width="1" height="3" fill="#FFFFFF" />
<rect x="128" y="108" width="2" height="1" fill="#FFFFFF" />
<rect x="15" y="109" width="1" height="2" fill="#EEEEEE" />
<rect x="16" y="109" width="1" height="2" fill="#11394C" />
<rect x="31" y="109" width="1" height="3" fill="#11394C" />
<rect x="32" y="109" width="9" height="1" fill="#AB2018" />
<rect x="47" y="109" width="3" height="1" fill="#AB2018" />
<rect x="50" y="109" width="2" height="15" fill="#770F09" />
<rect x="129" y="109" width="1" height="1" fill="#FFFFFF" />
<rect x="24" y="110" width="1" height="6" fill="#11394C" />
<rect x="32" y="110" width="1" height="2" fill="#11394C" />
<rect x="33" y="110" width="8" height="1" fill="#AB2018" />
<rect x="47" y="110" width="2" height="1" fill="#AB2018" />
<rect x="49" y="110" width="1" height="14" fill="#770F09" />
<rect x="16" y="111" width="1" height="1" fill="#EEEEEE" />
<rect x="17" y="111" width="1" height="1" fill="#11394C" />
<rect x="25" y="111" width="1" height="5" fill="#11394C" />
<rect x="33" y="111" width="1" height="1" fill="#11394C" />
<rect x="34" y="111" width="7" height="1" fill="#AB2018" />
<rect x="47" y="111" width="1" height="1" fill="#AB2018" />
<rect x="48" y="111" width="1" height="13" fill="#770F09" />
<rect x="17" y="112" width="1" height="1" fill="#EEEEEE" />
<rect x="18" y="112" width="1" height="1" fill="#11394C" />
<rect x="22" y="112" width="1" height="4" fill="#11394C" />
<rect x="26" y="112" width="1" height="3" fill="#11394C" />
<rect x="35" y="112" width="6" height="1" fill="#AB2018" />
<rect x="47" y="112" width="1" height="12" fill="#770F09" />
<rect x="132" y="112" width="1" height="1" fill="#FFFFFF" />
<rect x="18" y="113" width="1" height="1" fill="#EEEEEE" />
<rect x="19" y="113" width="1" height="1" fill="#11394C" />
<rect x="21" y="113" width="1" height="3" fill="#11394C" />
<rect x="27" y="113" width="1" height="2" fill="#11394C" />
<rect x="32" y="113" width="1" height="8" fill="#F7CEC2" />
<rect x="35" y="113" width="1" height="28" fill="#11394C" />
<rect x="36" y="113" width="10" height="1" fill="#AB2018" />
<rect x="46" y="113" width="1" height="10" fill="#770F09" />
<rect x="74" y="113" width="1" height="45" fill="#AB2018" />
<rect x="75" y="113" width="1" height="3" fill="#FFFFFF" />
<rect x="19" y="114" width="1" height="1" fill="#EEEEEE" />
<rect x="20" y="114" width="1" height="1" fill="#11394C" />
<rect x="28" y="114" width="1" height="1" fill="#11394C" />
<rect x="31" y="114" width="1" height="6" fill="#F7CEC2" />
<rect x="36" y="114" width="1" height="22" fill="#11394C" />
<rect x="37" y="114" width="8" height="1" fill="#AB2018" />
<rect x="45" y="114" width="1" height="9" fill="#770F09" />
<rect x="20" y="115" width="1" height="1" fill="#EEEEEE" />
<rect x="30" y="115" width="1" height="5" fill="#F7CEC2" />
<rect x="34" y="115" width="1" height="25" fill="#11394C" />
<rect x="37" y="115" width="1" height="19" fill="#11394C" />
<rect x="38" y="115" width="6" height="1" fill="#AB2018" />
<rect x="44" y="115" width="1" height="7" fill="#770F09" />
<rect x="73" y="115" width="1" height="9" fill="#770F09" />
<rect x="21" y="116" width="2" height="1" fill="#EEEEEE" />
<rect x="27" y="116" width="3" height="3" fill="#F7CEC2" />
<rect x="38" y="116" width="1" height="16" fill="#11394C" />
<rect x="39" y="116" width="5" height="1" fill="#AB2018" />
<rect x="75" y="116" width="1" height="42" fill="#AB2018" />
<rect x="76" y="116" width="1" height="2" fill="#FFFFFF" />
<rect x="81" y="116" width="8" height="3" fill="#FFFFFF" />
<rect x="90" y="116" width="3" height="1" fill="#FFFFFF" />
<rect x="25" y="117" width="1" height="1" fill="#EEEEEE" />
<rect x="26" y="117" width="1" height="1" fill="#F7CEC2" />
<rect x="39" y="117" width="1" height="12" fill="#11394C" />
<rect x="40" y="117" width="3" height="1" fill="#AB2018" />
<rect x="43" y="117" width="1" height="3" fill="#770F09" />
<rect x="91" y="117" width="2" height="1" fill="#FFFFFF" />
<rect x="26" y="118" width="1" height="1" fill="#EEEEEE" />
<rect x="40" y="118" width="1" height="7" fill="#11394C" />
<rect x="41" y="118" width="2" height="42" fill="#AB2018" />
<rect x="76" y="118" width="1" height="40" fill="#AB2018" />
<rect x="77" y="118" width="1" height="1" fill="#FFFFFF" />
<rect x="92" y="118" width="1" height="1" fill="#FFFFFF" />
<rect x="27" y="119" width="2" height="1" fill="#EEEEEE" />
<rect x="29" y="119" width="1" height="1" fill="#F7CEC2" />
<rect x="77" y="119" width="1" height="35" fill="#AB2018" />
<rect x="78" y="119" width="1" height="2" fill="#FFFFFF" />
<rect x="82" y="119" width="7" height="1" fill="#FFFFFF" />
<rect x="29" y="120" width="3" height="1" fill="#EEEEEE" />
<rect x="43" y="120" width="1" height="40" fill="#AB2018" />
<rect x="83" y="120" width="6" height="1" fill="#FFFFFF" />
<rect x="32" y="121" width="1" height="1" fill="#EEEEEE" />
<rect x="78" y="121" width="1" height="33" fill="#AB2018" />
<rect x="79" y="121" width="1" height="1" fill="#FFFFFF" />
<rect x="84" y="121" width="6" height="1" fill="#FFFFFF" />
<rect x="44" y="122" width="1" height="38" fill="#AB2018" />
<rect x="79" y="122" width="1" height="32" fill="#AB2018" />
<rect x="80" y="122" width="1" height="1" fill="#FFFFFF" />
<rect x="85" y="122" width="5" height="1" fill="#FFFFFF" />
<rect x="33" y="123" width="1" height="5" fill="#EEEEEE" />
<rect x="45" y="123" width="2" height="37" fill="#AB2018" />
<rect x="80" y="123" width="1" height="31" fill="#AB2018" />
<rect x="81" y="123" width="1" height="1" fill="#FFFFFF" />
<rect x="86" y="123" width="4" height="1" fill="#FFFFFF" />
<rect x="47" y="124" width="27" height="34" fill="#AB2018" />
<rect x="81" y="124" width="1" height="30" fill="#AB2018" />
<rect x="82" y="124" width="1" height="1" fill="#FFFFFF" />
<rect x="88" y="124" width="2" height="1" fill="#FFFFFF" />
<rect x="40" y="125" width="1" height="35" fill="#AB2018" />
<rect x="82" y="125" width="1" height="29" fill="#AB2018" />
<rect x="83" y="125" width="2" height="1" fill="#FFFFFF" />
<rect x="89" y="125" width="2" height="1" fill="#FFFFFF" />
<rect x="83" y="126" width="2" height="28" fill="#AB2018" />
<rect x="85" y="126" width="1" height="1" fill="#FFFFFF" />
<rect x="85" y="127" width="1" height="27" fill="#AB2018" />
<rect x="86" y="127" width="2" height="1" fill="#FFFFFF" />
<rect x="32" y="128" width="1" height="11" fill="#EEEEEE" />
<rect x="33" y="128" width="1" height="10" fill="#11394C" />
<rect x="86" y="128" width="2" height="26" fill="#AB2018" />
<rect x="88" y="128" width="1" height="1" fill="#FFFFFF" />
<rect x="39" y="129" width="1" height="31" fill="#AB2018" />
<rect x="88" y="129" width="1" height="25" fill="#AB2018" />
<rect x="89" y="129" width="1" height="1" fill="#FFFFFF" />
<rect x="89" y="130" width="1" height="24" fill="#AB2018" />
<rect x="90" y="130" width="1" height="1" fill="#FFFFFF" />
<rect x="90" y="131" width="1" height="23" fill="#AB2018" />
<rect x="91" y="131" width="1" height="1" fill="#FFFFFF" />
<rect x="38" y="132" width="1" height="27" fill="#AB2018" />
<rect x="91" y="132" width="1" height="22" fill="#AB2018" />
<rect x="92" y="132" width="1" height="1" fill="#FFFFFF" />
<rect x="92" y="133" width="1" height="17" fill="#AB2018" />
<rect x="93" y="133" width="1" height="1" fill="#FFFFFF" />
<rect x="37" y="134" width="1" height="24" fill="#AB2018" />
<rect x="93" y="134" width="1" height="15" fill="#AB2018" />
<rect x="94" y="134" width="1" height="1" fill="#FFFFFF" />
<rect x="94" y="135" width="1" height="14" fill="#AB2018" />
<rect x="95" y="135" width="1" height="1" fill="#FFFFFF" />
<rect x="36" y="136" width="1" height="22" fill="#AB2018" />
<rect x="95" y="136" width="1" height="13" fill="#AB2018" />
<rect x="96" y="136" width="1" height="1" fill="#FFFFFF" />
<rect x="96" y="137" width="1" height="12" fill="#AB2018" />
<rect x="97" y="137" width="1" height="2" fill="#FFFFFF" />
<rect x="33" y="138" width="1" height="5" fill="#AB2018" />
<rect x="97" y="139" width="1" height="10" fill="#AB2018" />
<rect x="98" y="139" width="1" height="2" fill="#FFFFFF" />
<rect x="34" y="140" width="1" height="4" fill="#AB2018" />
<rect x="35" y="141" width="1" height="15" fill="#AB2018" />
<rect x="98" y="141" width="1" height="6" fill="#AB2018" />
<rect x="99" y="141" width="1" height="2" fill="#FFFFFF" />
<rect x="99" y="143" width="1" height="3" fill="#AB2018" />
<rect x="100" y="145" width="1" height="1" fill="#AB2018" />
<rect x="92" y="151" width="5" height="3" fill="#AB2018" />
<rect x="97" y="152" width="5" height="1" fill="#AB2018" />
<rect x="97" y="153" width="1" height="1" fill="#AB2018" />
<rect x="77" y="155" width="4" height="3" fill="#AB2018" />
<rect x="81" y="156" width="9" height="1" fill="#AB2018" />
<rect x="81" y="157" width="2" height="1" fill="#AB2018" />
<rect x="47" y="158" width="21" height="1" fill="#AB2018" />
<rect x="47" y="159" width="20" height="1" fill="#AB2018" />
</svg>