<?xml version="1.0" encoding="UTF-8" ?>
<svg version="1.1" width="128" height="128" xmlns="http://www.w3.org/2000/svg" shape-rendering="crispEdges">
<rect x="64" y="8" width="8" height="40" fill="#78FF7D" />
<rect x="56" y="16" width="8" height="32" fill="#78FF7D" />
<rect x="16" y="48" width="24" height="16" fill="#78FF7D" />
<rect x="8" y="56" width="8" height="24" fill="#78FF7D" />
<rect x="40" y="56" width="80" height="8" fill="#78FF7D" />
<rect x="16" y="64" width="8" height="24" fill="#78FF7D" />
<rect x="32" y="64" width="80" height="8" fill="#78FF7D" />
<rect x="24" y="72" width="24" height="8" fill="#78FF7D" />
<rect x="24" y="80" width="16" height="8" fill="#78FF7D" />
<rect x="48" y="80" width="24" height="16" fill="#78FF7D" />
<rect x="40" y="88" width="8" height="24" fill="#78FF7D" />
<rect x="72" y="88" width="8" height="24" fill="#78FF7D" />
<rect x="48" y="96" width="8" height="24" fill="#78FF7D" />
<rect x="64" y="96" width="8" height="24" fill="#78FF7D" />
<rect x="56" y="104" width="8" height="16" fill="#78FF7D" />
</svg>