<?xml version="1.0" encoding="UTF-8" ?>
<svg version="1.1" width="128" height="128" xmlns="http://www.w3.org/2000/svg" shape-rendering="crispEdges">
<rect x="48" y="0" width="32" height="16" fill="#F34359" />
<rect x="40" y="8" width="8" height="32" fill="#F34359" />
<rect x="80" y="8" width="8" height="32" fill="#F34359" />
<rect x="48" y="16" width="8" height="32" fill="#F34359" />
<rect x="72" y="16" width="8" height="32" fill="#F34359" />
<rect x="56" y="32" width="16" height="16" fill="#F34359" />
<rect x="8" y="40" width="32" height="16" fill="#F34359" />
<rect x="88" y="40" width="32" height="16" fill="#F34359" />
<rect x="0" y="48" width="8" height="32" fill="#F34359" />
<rect x="40" y="48" width="8" height="32" fill="#F34359" />
<rect x="80" y="48" width="8" height="32" fill="#F34359" />
<rect x="120" y="48" width="8" height="32" fill="#F34359" />
<rect x="8" y="56" width="8" height="32" fill="#F34359" />
<rect x="32" y="56" width="8" height="32" fill="#F34359" />
<rect x="88" y="56" width="8" height="32" fill="#F34359" />
<rect x="112" y="56" width="8" height="32" fill="#F34359" />
<rect x="16" y="72" width="16" height="16" fill="#F34359" />
<rect x="96" y="72" width="16" height="16" fill="#F34359" />
<rect x="48" y="80" width="32" height="16" fill="#F34359" />
<rect x="40" y="88" width="8" height="32" fill="#F34359" />
<rect x="80" y="88" width="8" height="32" fill="#F34359" />
<rect x="48" y="96" width="8" height="32" fill="#F34359" />
<rect x="72" y="96" width="8" height="32" fill="#F34359" />
<rect x="56" y="112" width="16" height="16" fill="#F34359" />
</svg>