<?xml version="1.0" encoding="UTF-8" ?>
<svg version="1.1" width="128" height="128" xmlns="http://www.w3.org/2000/svg" shape-rendering="crispEdges">
<rect x="71" y="3" width="2" height="18" fill="#F2180B" />
<rect x="69" y="5" width="1" height="4" fill="#F2180B" />
<rect x="88" y="6" width="1" height="1" fill="#F2180B" />
<rect x="70" y="7" width="1" height="11" fill="#F2180B" />
<rect x="74" y="7" width="1" height="21" fill="#F2180B" />
<rect x="76" y="7" width="1" height="23" fill="#F2180B" />
<rect x="84" y="7" width="4" height="33" fill="#F2180B" />
<rect x="89" y="7" width="1" height="38" fill="#F2180B" />
<rect x="95" y="7" width="3" height="1" fill="#F2180B" />
<rect x="73" y="8" width="1" height="19" fill="#F2180B" />
<rect x="75" y="8" width="1" height="21" fill="#F2180B" />
<rect x="77" y="8" width="7" height="23" fill="#F2180B" />
<rect x="88" y="8" width="1" height="36" fill="#F2180B" />
<rect x="90" y="8" width="5" height="38" fill="#F2180B" />
<rect x="96" y="8" width="1" height="24" fill="#F2180B" />
<rect x="98" y="8" width="1" height="42" fill="#F2180B" />
<rect x="95" y="9" width="1" height="49" fill="#F2180B" />
<rect x="97" y="9" width="1" height="22" fill="#F2180B" />
<rect x="99" y="9" width="7" height="41" fill="#F2180B" />
<rect x="106" y="10" width="1" height="49" fill="#F2180B" />
<rect x="107" y="11" width="1" height="1" fill="#F2180B" />
<rect x="108" y="12" width="1" height="41" fill="#F2180B" />
<rect x="107" y="13" width="1" height="41" fill="#F2180B" />
<rect x="109" y="13" width="1" height="40" fill="#F2180B" />
<rect x="110" y="14" width="1" height="39" fill="#F2180B" />
<rect x="112" y="14" width="1" height="2" fill="#F2180B" />
<rect x="111" y="15" width="1" height="39" fill="#F2180B" />
<rect x="113" y="16" width="1" height="38" fill="#F2180B" />
<rect x="112" y="18" width="1" height="36" fill="#F2180B" />
<rect x="114" y="18" width="1" height="36" fill="#F2180B" />
<rect x="115" y="19" width="1" height="36" fill="#F2180B" />
<rect x="28" y="20" width="24" height="4" fill="#FFFFFF" />
<rect x="25" y="21" width="3" height="3" fill="#FFFFFF" />
<rect x="52" y="21" width="4" height="7" fill="#FFFFFF" />
<rect x="72" y="21" width="1" height="4" fill="#F2180B" />
<rect x="116" y="21" width="1" height="1" fill="#F2180B" />
<rect x="21" y="22" width="4" height="2" fill="#FFFFFF" />
<rect x="56" y="22" width="3" height="7" fill="#FFFFFF" />
<rect x="117" y="22" width="1" height="33" fill="#F2180B" />
<rect x="19" y="23" width="2" height="1" fill="#FFFFFF" />
<rect x="59" y="23" width="2" height="7" fill="#FFFFFF" />
<rect x="17" y="24" width="3" height="1" fill="#FFFFFF" />
<rect x="20" y="24" width="18" height="40" fill="#AB2018" />
<rect x="38" y="24" width="14" height="1" fill="#FFFFFF" />
<rect x="61" y="24" width="2" height="7" fill="#FFFFFF" />
<rect x="16" y="25" width="1" height="1" fill="#FFFFFF" />
<rect x="17" y="25" width="3" height="36" fill="#AB2018" />
<rect x="38" y="25" width="6" height="52" fill="#AB2018" />
<rect x="44" y="25" width="8" height="1" fill="#FFFFFF" />
<rect x="63" y="25" width="2" height="6" fill="#FFFFFF" />
<rect x="15" y="26" width="1" height="1" fill="#FFFFFF" />
<rect x="16" y="26" width="1" height="34" fill="#AB2018" />
<rect x="44" y="26" width="4" height="47" fill="#AB2018" />
<rect x="48" y="26" width="4" height="1" fill="#FFFFFF" />
<rect x="65" y="26" width="1" height="6" fill="#FFFFFF" />
<rect x="14" y="27" width="1" height="1" fill="#FFFFFF" />
<rect x="15" y="27" width="1" height="32" fill="#AB2018" />
<rect x="48" y="27" width="4" height="13" fill="#AB2018" />
<rect x="66" y="27" width="1" height="5" fill="#FFFFFF" />
<rect x="118" y="27" width="1" height="28" fill="#F2180B" />
<rect x="13" y="28" width="1" height="1" fill="#FFFFFF" />
<rect x="14" y="28" width="1" height="30" fill="#AB2018" />
<rect x="52" y="28" width="2" height="12" fill="#AB2018" />
<rect x="54" y="28" width="2" height="1" fill="#FFFFFF" />
<rect x="67" y="28" width="1" height="5" fill="#FFFFFF" />
<rect x="116" y="28" width="1" height="27" fill="#F2180B" />
<rect x="12" y="29" width="1" height="1" fill="#FFFFFF" />
<rect x="13" y="29" width="1" height="28" fill="#AB2018" />
<rect x="54" y="29" width="4" height="11" fill="#AB2018" />
<rect x="58" y="29" width="1" height="1" fill="#FFFFFF" />
<rect x="68" y="29" width="1" height="4" fill="#FFFFFF" />
<rect x="11" y="30" width="1" height="1" fill="#FFFFFF" />
<rect x="12" y="30" width="1" height="26" fill="#AB2018" />
<rect x="58" y="30" width="3" height="10" fill="#AB2018" />
<rect x="69" y="30" width="1" height="3" fill="#FFFFFF" />
<rect x="10" y="31" width="1" height="2" fill="#FFFFFF" />
<rect x="11" y="31" width="1" height="25" fill="#AB2018" />
<rect x="61" y="31" width="3" height="9" fill="#AB2018" />
<rect x="64" y="31" width="1" height="1" fill="#FFFFFF" />
<rect x="70" y="31" width="1" height="2" fill="#FFFFFF" />
<rect x="78" y="31" width="6" height="1" fill="#F2180B" />
<rect x="64" y="32" width="3" height="9" fill="#AB2018" />
<rect x="71" y="32" width="1" height="2" fill="#FFFFFF" />
<rect x="79" y="32" width="5" height="2" fill="#F2180B" />
<rect x="119" y="32" width="1" height="23" fill="#F2180B" />
<rect x="9" y="33" width="1" height="2" fill="#FFFFFF" />
<rect x="10" y="33" width="1" height="23" fill="#AB2018" />
<rect x="67" y="33" width="4" height="8" fill="#AB2018" />
<rect x="72" y="33" width="1" height="1" fill="#FFFFFF" />
<rect x="8" y="34" width="1" height="3" fill="#FFFFFF" />
<rect x="71" y="34" width="2" height="7" fill="#AB2018" />
<rect x="73" y="34" width="1" height="1" fill="#FFFFFF" />
<rect x="80" y="34" width="4" height="1" fill="#F2180B" />
<rect x="120" y="34" width="1" height="4" fill="#F2180B" />
<rect x="9" y="35" width="1" height="20" fill="#AB2018" />
<rect x="73" y="35" width="1" height="7" fill="#AB2018" />
<rect x="74" y="35" width="1" height="1" fill="#FFFFFF" />
<rect x="81" y="35" width="3" height="2" fill="#F2180B" />
<rect x="97" y="35" width="1" height="15" fill="#F2180B" />
<rect x="74" y="36" width="1" height="4" fill="#AB2018" />
<rect x="75" y="36" width="1" height="4" fill="#FFFFFF" />
<rect x="121" y="36" width="1" height="19" fill="#F2180B" />
<rect x="7" y="37" width="1" height="3" fill="#FFFFFF" />
<rect x="8" y="37" width="1" height="20" fill="#AB2018" />
<rect x="82" y="37" width="2" height="1" fill="#F2180B" />
<rect x="96" y="37" width="1" height="15" fill="#F2180B" />
<rect x="83" y="38" width="1" height="1" fill="#F2180B" />
<rect x="6" y="40" width="1" height="15" fill="#FFFFFF" />
<rect x="7" y="40" width="1" height="15" fill="#AB2018" />
<rect x="48" y="40" width="3" height="32" fill="#AB2018" />
<rect x="51" y="40" width="12" height="1" fill="#770F09" />
<rect x="63" y="40" width="1" height="1" fill="#AB2018" />
<rect x="74" y="40" width="1" height="2" fill="#FFFFFF" />
<rect x="85" y="40" width="3" height="1" fill="#F2180B" />
<rect x="120" y="40" width="1" height="15" fill="#F2180B" />
<rect x="51" y="41" width="2" height="30" fill="#AB2018" />
<rect x="53" y="41" width="19" height="1" fill="#770F09" />
<rect x="72" y="41" width="1" height="1" fill="#AB2018" />
<rect x="86" y="41" width="2" height="1" fill="#F2180B" />
<rect x="53" y="42" width="1" height="29" fill="#AB2018" />
<rect x="54" y="42" width="19" height="1" fill="#770F09" />
<rect x="73" y="42" width="1" height="6" fill="#FFFFFF" />
<rect x="87" y="42" width="1" height="1" fill="#F2180B" />
<rect x="54" y="43" width="1" height="28" fill="#AB2018" />
<rect x="55" y="43" width="18" height="1" fill="#770F09" />
<rect x="55" y="44" width="2" height="26" fill="#AB2018" />
<rect x="57" y="44" width="16" height="1" fill="#770F09" />
<rect x="122" y="44" width="1" height="3" fill="#F2180B" />
<rect x="57" y="45" width="2" height="25" fill="#AB2018" />
<rect x="59" y="45" width="14" height="1" fill="#770F09" />
<rect x="59" y="46" width="2" height="23" fill="#AB2018" />
<rect x="61" y="46" width="12" height="1" fill="#770F09" />
<rect x="91" y="46" width="4" height="1" fill="#F2180B" />
<rect x="61" y="47" width="3" height="22" fill="#AB2018" />
<rect x="64" y="47" width="8" height="1" fill="#770F09" />
<rect x="72" y="47" width="1" height="1" fill="#AB2018" />
<rect x="92" y="47" width="3" height="4" fill="#F2180B" />
<rect x="123" y="47" width="1" height="3" fill="#F2180B" />
<rect x="64" y="48" width="3" height="21" fill="#AB2018" />
<rect x="67" y="48" width="5" height="1" fill="#770F09" />
<rect x="72" y="48" width="1" height="20" fill="#FFFFFF" />
<rect x="67" y="49" width="5" height="18" fill="#AB2018" />
<rect x="100" y="50" width="6" height="1" fill="#F2180B" />
<rect x="124" y="50" width="1" height="5" fill="#F2180B" />
<rect x="93" y="51" width="2" height="4" fill="#F2180B" />
<rect x="101" y="51" width="5" height="1" fill="#F2180B" />
<rect x="123" y="51" width="1" height="4" fill="#F2180B" />
<rect x="102" y="52" width="4" height="3" fill="#F2180B" />
<rect x="122" y="52" width="1" height="3" fill="#F2180B" />
<rect x="7" y="55" width="1" height="2" fill="#FFFFFF" />
<rect x="9" y="55" width="1" height="12" fill="#11394C" />
<rect x="94" y="55" width="1" height="6" fill="#F2180B" />
<rect x="104" y="55" width="2" height="5" fill="#F2180B" />
<rect x="10" y="56" width="3" height="13" fill="#11394C" />
<rect x="13" y="57" width="1" height="15" fill="#11394C" />
<rect x="7" y="58" width="1" height="5" fill="#EEEEEE" />
<rect x="8" y="58" width="1" height="5" fill="#11394C" />
<rect x="14" y="58" width="1" height="13" fill="#11394C" />
<rect x="15" y="59" width="1" height="11" fill="#11394C" />
<rect x="16" y="60" width="1" height="9" fill="#11394C" />
<rect x="105" y="60" width="1" height="6" fill="#F2180B" />
<rect x="17" y="61" width="1" height="7" fill="#11394C" />
<rect x="18" y="61" width="2" height="1" fill="#AB2018" />
<rect x="18" y="62" width="1" height="5" fill="#11394C" />
<rect x="19" y="62" width="1" height="1" fill="#AB2018" />
<rect x="8" y="63" width="1" height="5" fill="#EEEEEE" />
<rect x="19" y="63" width="1" height="4" fill="#11394C" />
<rect x="20" y="64" width="1" height="3" fill="#11394C" />
<rect x="21" y="64" width="17" height="1" fill="#AB2018" />
<rect x="21" y="65" width="1" height="3" fill="#11394C" />
<rect x="22" y="65" width="16" height="1" fill="#AB2018" />
<rect x="22" y="66" width="1" height="3" fill="#11394C" />
<rect x="23" y="66" width="15" height="2" fill="#AB2018" />
<rect x="9" y="67" width="1" height="2" fill="#EEEEEE" />
<rect x="18" y="67" width="3" height="3" fill="#A7CBDC" />
<rect x="67" y="67" width="4" height="2" fill="#AB2018" />
<rect x="71" y="67" width="1" height="10" fill="#FFFFFF" />
<rect x="17" y="68" width="1" height="10" fill="#A7CBDC" />
<rect x="21" y="68" width="1" height="4" fill="#A7CBDC" />
<rect x="23" y="68" width="1" height="2" fill="#11394C" />
<rect x="24" y="68" width="14" height="1" fill="#AB2018" />
<rect x="10" y="69" width="1" height="3" fill="#EEEEEE" />
<rect x="11" y="69" width="2" height="3" fill="#11394C" />
<rect x="16" y="69" width="1" height="8" fill="#A7CBDC" />
<rect x="22" y="69" width="1" height="3" fill="#A7CBDC" />
<rect x="24" y="69" width="1" height="7" fill="#11394C" />
<rect x="25" y="69" width="13" height="1" fill="#AB2018" />
<rect x="59" y="69" width="1" height="1" fill="#AB2018" />
<rect x="60" y="69" width="8" height="19" fill="#770F09" />
<rect x="68" y="69" width="3" height="1" fill="#AB2018" />
<rect x="15" y="70" width="1" height="6" fill="#A7CBDC" />
<rect x="18" y="70" width="1" height="7" fill="#A7CBDC" />
<rect x="19" y="70" width="1" height="2" fill="#11394C" />
<rect x="20" y="70" width="1" height="1" fill="#A7CBDC" />
<rect x="23" y="70" width="1" height="1" fill="#A7CBDC" />
<rect x="25" y="70" width="1" height="7" fill="#11394C" />
<rect x="26" y="70" width="12" height="1" fill="#AB2018" />
<rect x="55" y="70" width="5" height="18" fill="#770F09" />
<rect x="68" y="70" width="1" height="18" fill="#770F09" />
<rect x="69" y="70" width="2" height="2" fill="#AB2018" />
<rect x="14" y="71" width="1" height="4" fill="#A7CBDC" />
<rect x="20" y="71" width="1" height="10" fill="#11394C" />
<rect x="23" y="71" width="1" height="4" fill="#11394C" />
<rect x="26" y="71" width="1" height="6" fill="#11394C" />
<rect x="27" y="71" width="11" height="1" fill="#AB2018" />
<rect x="51" y="71" width="4" height="17" fill="#770F09" />
<rect x="11" y="72" width="1" height="1" fill="#EEEEEE" />
<rect x="12" y="72" width="1" height="1" fill="#11394C" />
<rect x="13" y="72" width="1" height="1" fill="#A7CBDC" />
<rect x="19" y="72" width="1" height="4" fill="#A7CBDC" />
<rect x="21" y="72" width="2" height="2" fill="#11394C" />
<rect x="27" y="72" width="1" height="4" fill="#11394C" />
<rect x="28" y="72" width="10" height="1" fill="#AB2018" />
<rect x="48" y="72" width="1" height="1" fill="#AB2018" />
<rect x="49" y="72" width="2" height="16" fill="#770F09" />
<rect x="69" y="72" width="1" height="16" fill="#770F09" />
<rect x="70" y="72" width="1" height="7" fill="#AB2018" />
<rect x="12" y="73" width="1" height="2" fill="#EEEEEE" />
<rect x="13" y="73" width="1" height="2" fill="#11394C" />
<rect x="28" y="73" width="1" height="3" fill="#11394C" />
<rect x="29" y="73" width="9" height="1" fill="#AB2018" />
<rect x="44" y="73" width="3" height="1" fill="#AB2018" />
<rect x="47" y="73" width="2" height="15" fill="#770F09" />
<rect x="21" y="74" width="1" height="6" fill="#11394C" />
<rect x="29" y="74" width="1" height="2" fill="#11394C" />
<rect x="30" y="74" width="8" height="1" fill="#AB2018" />
<rect x="44" y="74" width="2" height="1" fill="#AB2018" />
<rect x="46" y="74" width="1" height="14" fill="#770F09" />
<rect x="13" y="75" width="1" height="1" fill="#EEEEEE" />
<rect x="14" y="75" width="1" height="1" fill="#11394C" />
<rect x="22" y="75" width="1" height="5" fill="#11394C" />
<rect x="30" y="75" width="1" height="1" fill="#11394C" />
<rect x="31" y="75" width="7" height="1" fill="#AB2018" />
<rect x="44" y="75" width="1" height="1" fill="#AB2018" />
<rect x="45" y="75" width="1" height="13" fill="#770F09" />
<rect x="14" y="76" width="1" height="1" fill="#EEEEEE" />
<rect x="15" y="76" width="1" height="1" fill="#11394C" />
<rect x="19" y="76" width="1" height="4" fill="#11394C" />
<rect x="23" y="76" width="1" height="3" fill="#11394C" />
<rect x="32" y="76" width="6" height="1" fill="#AB2018" />
<rect x="44" y="76" width="1" height="12" fill="#770F09" />
<rect x="15" y="77" width="1" height="1" fill="#EEEEEE" />
<rect x="16" y="77" width="1" height="1" fill="#11394C" />
<rect x="18" y="77" width="1" height="3" fill="#11394C" />
<rect x="24" y="77" width="1" height="2" fill="#11394C" />
<rect x="29" y="77" width="1" height="8" fill="#F7CEC2" />
<rect x="32" y="77" width="1" height="28" fill="#11394C" />
<rect x="33" y="77" width="10" height="1" fill="#AB2018" />
<rect x="43" y="77" width="1" height="10" fill="#770F09" />
<rect x="71" y="77" width="1" height="45" fill="#AB2018" />
<rect x="72" y="77" width="1" height="3" fill="#FFFFFF" />
<rect x="16" y="78" width="1" height="1" fill="#EEEEEE" />
<rect x="17" y="78" width="1" height="1" fill="#11394C" />
<rect x="25" y="78" width="1" height="1" fill="#11394C" />
<rect x="28" y="78" width="1" height="6" fill="#F7CEC2" />
<rect x="33" y="78" width="1" height="22" fill="#11394C" />
<rect x="34" y="78" width="8" height="1" fill="#AB2018" />
<rect x="42" y="78" width="1" height="9" fill="#770F09" />
<rect x="17" y="79" width="1" height="1" fill="#EEEEEE" />
<rect x="27" y="79" width="1" height="5" fill="#F7CEC2" />
<rect x="31" y="79" width="1" height="25" fill="#11394C" />
<rect x="34" y="79" width="1" height="19" fill="#11394C" />
<rect x="35" y="79" width="6" height="1" fill="#AB2018" />
<rect x="41" y="79" width="1" height="7" fill="#770F09" />
<rect x="70" y="79" width="1" height="9" fill="#770F09" />
<rect x="18" y="80" width="2" height="1" fill="#EEEEEE" />
<rect x="24" y="80" width="3" height="3" fill="#F7CEC2" />
<rect x="35" y="80" width="1" height="16" fill="#11394C" />
<rect x="36" y="80" width="5" height="1" fill="#AB2018" />
<rect x="72" y="80" width="1" height="42" fill="#AB2018" />
<rect x="73" y="80" width="1" height="2" fill="#FFFFFF" />
<rect x="105" y="80" width="1" height="1" fill="#F2180B" />
<rect x="22" y="81" width="1" height="1" fill="#EEEEEE" />
<rect x="23" y="81" width="1" height="1" fill="#F7CEC2" />
<rect x="36" y="81" width="1" height="12" fill="#11394C" />
<rect x="37" y="81" width="3" height="1" fill="#AB2018" />
<rect x="40" y="81" width="1" height="3" fill="#770F09" />
<rect x="23" y="82" width="1" height="1" fill="#EEEEEE" />
<rect x="37" y="82" width="1" height="7" fill="#11394C" />
<rect x="38" y="82" width="2" height="42" fill="#AB2018" />
<rect x="73" y="82" width="1" height="40" fill="#AB2018" />
<rect x="74" y="82" width="1" height="1" fill="#FFFFFF" />
<rect x="24" y="83" width="2" height="1" fill="#EEEEEE" />
<rect x="26" y="83" width="1" height="1" fill="#F7CEC2" />
<rect x="74" y="83" width="1" height="35" fill="#AB2018" />
<rect x="75" y="83" width="1" height="2" fill="#FFFFFF" />
<rect x="26" y="84" width="3" height="1" fill="#EEEEEE" />
<rect x="40" y="84" width="1" height="40" fill="#AB2018" />
<rect x="29" y="85" width="1" height="1" fill="#EEEEEE" />
<rect x="75" y="85" width="1" height="33" fill="#AB2018" />
<rect x="76" y="85" width="1" height="1" fill="#FFFFFF" />
<rect x="41" y="86" width="1" height="38" fill="#AB2018" />
<rect x="76" y="86" width="1" height="32" fill="#AB2018" />
<rect x="77" y="86" width="1" height="1" fill="#FFFFFF" />
<rect x="30" y="87" width="1" height="5" fill="#EEEEEE" />
<rect x="42" y="87" width="2" height="37" fill="#AB2018" />
<rect x="77" y="87" width="1" height="31" fill="#AB2018" />
<rect x="78" y="87" width="1" height="1" fill="#FFFFFF" />
<rect x="44" y="88" width="27" height="34" fill="#AB2018" />
<rect x="78" y="88" width="1" height="30" fill="#AB2018" />
<rect x="79" y="88" width="1" height="1" fill="#FFFFFF" />
<rect x="37" y="89" width="1" height="35" fill="#AB2018" />
<rect x="79" y="89" width="1" height="29" fill="#AB2018" />
<rect x="80" y="89" width="2" height="1" fill="#FFFFFF" />
<rect x="80" y="90" width="2" height="28" fill="#AB2018" />
<rect x="82" y="90" width="1" height="1" fill="#FFFFFF" />
<rect x="82" y="91" width="1" height="27" fill="#AB2018" />
<rect x="83" y="91" width="2" height="1" fill="#FFFFFF" />
<rect x="29" y="92" width="1" height="11" fill="#EEEEEE" />
<rect x="30" y="92" width="1" height="10" fill="#11394C" />
<rect x="83" y="92" width="2" height="26" fill="#AB2018" />
<rect x="85" y="92" width="1" height="1" fill="#FFFFFF" />
<rect x="36" y="93" width="1" height="31" fill="#AB2018" />
<rect x="85" y="93" width="1" height="25" fill="#AB2018" />
<rect x="86" y="93" width="1" height="1" fill="#FFFFFF" />
<rect x="86" y="94" width="1" height="24" fill="#AB2018" />
<rect x="87" y="94" width="1" height="1" fill="#FFFFFF" />
<rect x="87" y="95" width="1" height="23" fill="#AB2018" />
<rect x="88" y="95" width="1" height="1" fill="#FFFFFF" />
<rect x="35" y="96" width="1" height="27" fill="#AB2018" />
<rect x="88" y="96" width="1" height="22" fill="#AB2018" />
<rect x="89" y="96" width="1" height="1" fill="#FFFFFF" />
<rect x="89" y="97" width="1" height="17" fill="#AB2018" />
<rect x="90" y="97" width="1" height="1" fill="#FFFFFF" />
<rect x="34" y="98" width="1" height="24" fill="#AB2018" />
<rect x="90" y="98" width="1" height="15" fill="#AB2018" />
<rect x="91" y="98" width="1" height="1" fill="#FFFFFF" />
<rect x="91" y="99" width="1" height="14" fill="#AB2018" />
<rect x="92" y="99" width="1" height="1" fill="#FFFFFF" />
<rect x="33" y="100" width="1" height="22" fill="#AB2018" />
<rect x="92" y="100" width="1" height="13" fill="#AB2018" />
<rect x="93" y="100" width="1" height="1" fill="#FFFFFF" />
<rect x="93" y="101" width="1" height="12" fill="#AB2018" />
<rect x="94" y="101" width="1" height="2" fill="#FFFFFF" />
<rect x="30" y="102" width="1" height="5" fill="#AB2018" />
<rect x="29" y="103" width="1" height="18" fill="#FFFFFF" />
<rect x="94" y="103" width="1" height="10" fill="#AB2018" />
<rect x="95" y="103" width="1" height="2" fill="#FFFFFF" />
<rect x="31" y="104" width="1" height="4" fill="#AB2018" />
<rect x="32" y="105" width="1" height="15" fill="#AB2018" />
<rect x="95" y="105" width="1" height="6" fill="#AB2018" />
<rect x="96" y="105" width="1" height="2" fill="#FFFFFF" />
<rect x="28" y="106" width="1" height="12" fill="#FFFFFF" />
<rect x="30" y="107" width="1" height="17" fill="#FFFFFF" />
<rect x="96" y="107" width="1" height="3" fill="#AB2018" />
<rect x="97" y="107" width="1" height="2" fill="#FFFFFF" />
<rect x="31" y="108" width="1" height="17" fill="#FFFFFF" />
<rect x="98" y="108" width="3" height="8" fill="#FFFFFF" />
<rect x="97" y="109" width="1" height="1" fill="#AB2018" />
<rect x="101" y="109" width="3" height="1" fill="#FFFFFF" />
<rect x="27" y="110" width="1" height="5" fill="#FFFFFF" />
<rect x="96" y="110" width="2" height="6" fill="#FFFFFF" />
<rect x="101" y="110" width="1" height="1" fill="#FFFFFF" />
<rect x="95" y="111" width="1" height="5" fill="#FFFFFF" />
<rect x="101" y="112" width="2" height="2" fill="#FFFFFF" />
<rect x="90" y="113" width="5" height="2" fill="#FFFFFF" />
<rect x="89" y="114" width="1" height="1" fill="#FFFFFF" />
<rect x="89" y="115" width="5" height="3" fill="#AB2018" />
<rect x="94" y="115" width="1" height="1" fill="#FFFFFF" />
<rect x="101" y="115" width="2" height="5" fill="#FFFFFF" />
<rect x="94" y="116" width="5" height="1" fill="#AB2018" />
<rect x="99" y="116" width="2" height="4" fill="#FFFFFF" />
<rect x="103" y="116" width="1" height="2" fill="#FFFFFF" />
<rect x="94" y="117" width="1" height="1" fill="#AB2018" />
<rect x="95" y="117" width="4" height="3" fill="#FFFFFF" />
<rect x="74" y="118" width="21" height="1" fill="#FFFFFF" />
<rect x="74" y="119" width="4" height="3" fill="#AB2018" />
<rect x="78" y="119" width="17" height="1" fill="#FFFFFF" />
<rect x="103" y="119" width="1" height="1" fill="#FFFFFF" />
<rect x="32" y="120" width="1" height="5" fill="#FFFFFF" />
<rect x="78" y="120" width="9" height="1" fill="#AB2018" />
<rect x="87" y="120" width="7" height="1" fill="#FFFFFF" />
<rect x="78" y="121" width="2" height="1" fill="#AB2018" />
<rect x="80" y="121" width="10" height="1" fill="#FFFFFF" />
<rect x="33" y="122" width="2" height="3" fill="#FFFFFF" />
<rect x="44" y="122" width="21" height="1" fill="#AB2018" />
<rect x="65" y="122" width="22" height="1" fill="#FFFFFF" />
<rect x="35" y="123" width="1" height="2" fill="#FFFFFF" />
<rect x="44" y="123" width="20" height="1" fill="#AB2018" />
<rect x="64" y="123" width="11" height="1" fill="#FFFFFF" />
<rect x="36" y="124" width="28" height="1" fill="#FFFFFF" />
</svg>