<?xml version="1.0" encoding="UTF-8" ?>
<svg version="1.1" width="128" height="128" xmlns="http://www.w3.org/2000/svg" shape-rendering="crispEdges">
<rect x="24" y="24" width="16" height="16" fill="#FFF2DA" />
<rect x="88" y="24" width="16" height="16" fill="#FFF2DA" />
<rect x="40" y="32" width="8" height="24" fill="#FFF2DA" />
<rect x="80" y="32" width="8" height="24" fill="#FFF2DA" />
<rect x="32" y="40" width="8" height="8" fill="#FFF2DA" />
<rect x="48" y="40" width="8" height="16" fill="#FFF2DA" />
<rect x="72" y="40" width="8" height="16" fill="#FFF2DA" />
<rect x="88" y="40" width="8" height="8" fill="#FFF2DA" />
<rect x="40" y="72" width="16" height="16" fill="#FFF2DA" />
<rect x="72" y="72" width="16" height="16" fill="#FFF2DA" />
<rect x="32" y="80" width="8" height="24" fill="#FFF2DA" />
<rect x="88" y="80" width="8" height="24" fill="#FFF2DA" />
<rect x="24" y="88" width="8" height="16" fill="#FFF2DA" />
<rect x="40" y="88" width="8" height="8" fill="#FFF2DA" />
<rect x="80" y="88" width="8" height="8" fill="#FFF2DA" />
<rect x="96" y="88" width="8" height="16" fill="#FFF2DA" />
</svg>